<svg width="22" height="22" viewBox="0 0 22 22" fill="none" xmlns="http://www.w3.org/2000/svg">
<path d="M3.99984 4.91384L0.756836 1.67184L2.17184 0.256836L5.41384 3.49984H20.6558C20.8117 3.49983 20.9654 3.53625 21.1047 3.6062C21.244 3.67616 21.365 3.7777 21.4581 3.90273C21.5511 4.02776 21.6137 4.17282 21.6407 4.32632C21.6678 4.47983 21.6586 4.63753 21.6138 4.78684L19.2138 12.7868C19.1521 12.9929 19.0255 13.1736 18.853 13.302C18.6804 13.4305 18.471 13.4999 18.2558 13.4998H5.99984V15.4998H16.9998V17.4998H4.99984C4.73462 17.4998 4.48027 17.3945 4.29273 17.2069C4.10519 17.0194 3.99984 16.7651 3.99984 16.4998V4.91384ZM5.49984 21.4998C5.10201 21.4998 4.72048 21.3418 4.43918 21.0605C4.15787 20.7792 3.99984 20.3977 3.99984 19.9998C3.99984 19.602 4.15787 19.2205 4.43918 18.9392C4.72048 18.6579 5.10201 18.4998 5.49984 18.4998C5.89766 18.4998 6.27919 18.6579 6.5605 18.9392C6.8418 19.2205 6.99984 19.602 6.99984 19.9998C6.99984 20.3977 6.8418 20.7792 6.5605 21.0605C6.27919 21.3418 5.89766 21.4998 5.49984 21.4998ZM17.4998 21.4998C17.102 21.4998 16.7205 21.3418 16.4392 21.0605C16.1579 20.7792 15.9998 20.3977 15.9998 19.9998C15.9998 19.602 16.1579 19.2205 16.4392 18.9392C16.7205 18.6579 17.102 18.4998 17.4998 18.4998C17.8977 18.4998 18.2792 18.6579 18.5605 18.9392C18.8418 19.2205 18.9998 19.602 18.9998 19.9998C18.9998 20.3977 18.8418 20.7792 18.5605 21.0605C18.2792 21.3418 17.8977 21.4998 17.4998 21.4998Z" fill="white"/>
</svg>
