<svg width="18" height="22" viewBox="0 0 18 22" fill="none" xmlns="http://www.w3.org/2000/svg">
<path d="M14.944 2.46193C13.3565 0.874409 11.2457 0 9.00069 0C6.75528 0 4.64487 0.874409 3.05734 2.46193C0.119417 5.39942 -0.245687 10.9264 2.26665 14.275L6.53415 20.4379C7.72717 22.1608 10.2741 22.1608 11.4671 20.4378L15.7247 14.2886C18.2471 10.9264 17.882 5.39942 14.944 2.46193ZM9.07827 11.3958C7.38687 11.3958 6.01017 10.0191 6.01017 8.3277C6.01017 6.6363 7.38687 5.2596 9.07827 5.2596C10.7697 5.2596 12.1464 6.6363 12.1464 8.3277C12.1464 10.0191 10.7697 11.3958 9.07827 11.3958Z" fill="#576077"/>
</svg>
