<svg width="20" height="19" viewBox="0 0 20 19" fill="none" xmlns="http://www.w3.org/2000/svg">
<path d="M14.9395 0.695312C16.2805 0.695312 17.5705 1.22531 18.5195 2.17631C19.4695 3.12531 20.0005 4.40531 20.0005 5.74531V13.6453C20.0005 16.4353 17.7305 18.6953 14.9395 18.6953H5.06049C2.26949 18.6953 0.000488281 16.4353 0.000488281 13.6453V5.74531C0.000488281 2.95531 2.25949 0.695312 5.06049 0.695312H14.9395ZM16.0705 5.89531C15.8605 5.88431 15.6605 5.95531 15.5095 6.09531L11.0005 9.69531C10.4205 10.1763 9.58949 10.1763 9.00049 9.69531L4.50049 6.09531C4.18949 5.86531 3.75949 5.89531 3.50049 6.16531C3.23049 6.43531 3.20049 6.86531 3.42949 7.16531L3.56049 7.29531L8.11049 10.8453C8.67049 11.2853 9.34949 11.5253 10.0605 11.5253C10.7695 11.5253 11.4605 11.2853 12.0195 10.8453L16.5305 7.23531L16.6105 7.15531C16.8495 6.86531 16.8495 6.44531 16.5995 6.15531C16.4605 6.00631 16.2695 5.91531 16.0705 5.89531Z" fill="#576077"/>
</svg>
