<svg width="135" height="45" viewBox="0 0 135 45" fill="none" xmlns="http://www.w3.org/2000/svg">
<path d="M9.52756 44.0156C9.18384 44.0156 8.84841 44.0112 8.50738 44.0036C7.80091 43.9944 7.09609 43.9331 6.39869 43.8201C5.74841 43.7084 5.11847 43.5007 4.52963 43.2037C3.94619 42.9092 3.41405 42.5231 2.95359 42.06C2.48647 41.6025 2.09757 41.0718 1.8023 40.489C1.50377 39.9024 1.29718 39.2736 1.18971 38.6246C1.07365 37.9273 1.01085 37.2221 1.00187 36.5153C0.994715 36.278 0.985352 35.488 0.985352 35.488V9.49988C0.985352 9.49988 0.995325 8.72205 1.00192 8.49353C1.01053 7.78779 1.07296 7.08373 1.18867 6.38745C1.29634 5.73666 1.50309 5.10609 1.80178 4.51758C2.09596 3.93519 2.4827 3.40409 2.94702 2.94489C3.4108 2.48132 3.94465 2.09318 4.52908 1.79461C5.11656 1.49861 5.74532 1.29232 6.39428 1.18268C7.09396 1.06857 7.80123 1.00687 8.51016 0.998111L9.52812 0.984375H125.467L126.497 0.998663C127.2 1.00699 127.901 1.06813 128.594 1.18158C129.25 1.2926 129.885 1.50032 130.479 1.79791C131.65 2.39961 132.603 3.35156 133.204 4.52033C133.497 5.10477 133.701 5.7302 133.807 6.37536C133.924 7.07736 133.99 7.78696 134.003 8.49848C134.007 8.81708 134.007 9.1593 134.007 9.49988C134.016 9.92176 134.016 10.3233 134.016 10.7281V34.2729C134.016 34.6816 134.016 35.0804 134.007 35.4825C134.007 35.8484 134.007 36.1835 134.002 36.5284C133.989 37.2272 133.925 37.9242 133.809 38.6136C133.704 39.2673 133.499 39.901 133.2 40.4923C132.903 41.0688 132.516 41.5949 132.055 42.0513C131.594 42.5168 131.061 42.9052 130.476 43.2016C129.883 43.5008 129.249 43.7093 128.594 43.8201C127.897 43.9337 127.192 43.995 126.485 44.0036C126.155 44.0112 125.809 44.0156 125.473 44.0156L124.25 44.0179L9.52756 44.0156Z" fill="white"/>
</svg>
