<svg width="89" height="26" viewBox="0 0 89 26" fill="none" xmlns="http://www.w3.org/2000/svg">
<g clip-path="url(#clip0_68_1443)">
<path d="M31.7637 25.6331L36.2466 0.324707H43.5043L39.0216 25.6331H31.7637Z" fill="#293688"/>
<path d="M64.8592 0.978724C63.4208 0.465815 61.1674 -0.0834961 58.3533 -0.0834961C51.1804 -0.0834961 46.1279 3.34992 46.0844 8.26889C46.0446 11.9046 49.6911 13.9326 52.4459 15.1442C55.2709 16.3823 56.221 17.1767 56.2071 18.2831C56.1896 19.9795 53.95 20.755 51.8632 20.755C48.9586 20.7541 47.4147 20.3712 45.0307 19.4267L44.0955 19.0234L43.0762 24.6891C44.7719 25.3958 47.9076 26.0087 51.1628 26.0396C58.7916 26.038 63.7462 22.6471 63.8018 17.3928C63.8295 14.5141 61.8952 12.3232 57.7075 10.5165C55.17 9.34718 53.616 8.56623 53.6328 7.37945C53.6328 6.32787 54.949 5.20301 57.7898 5.20301C60.1634 5.16756 61.8831 5.65943 63.2235 6.17234L63.873 6.46425L64.8592 0.978724Z" fill="#293688"/>
<path d="M77.2327 0.324707C75.4937 0.324707 74.2374 0.832416 73.4732 2.48011L62.7168 25.6341H70.4012L71.8952 21.7558H81.0763L81.9292 25.6341H88.7607L82.7841 0.325418H77.2329L77.2327 0.324707ZM73.934 16.6917C74.5335 15.2343 76.8248 9.61805 76.8248 9.61805C76.7832 9.68447 77.4213 8.15354 77.7877 7.2036L78.2789 9.38452C78.2789 9.38452 79.6673 15.426 79.9588 16.6924H73.934V16.6917Z" fill="#293688"/>
<path d="M18.5274 17.6733L17.8881 14.2037C16.5635 10.1593 12.4524 5.78329 7.8457 3.59078L14.2582 25.6331H21.9443L33.4712 0.324707H25.7868L18.5274 17.6733Z" fill="#293688"/>
<path d="M-0.0439453 0.324707V0.733382C9.06322 2.82756 15.3859 8.12187 17.889 14.204L15.2574 2.4846C14.8181 0.882998 13.4868 0.380486 11.9115 0.324941L-0.0439453 0.324707Z" fill="#F7981D"/>
</g>
<defs>
<clipPath id="clip0_68_1443">
<rect width="89" height="26" fill="white"/>
</clipPath>
</defs>
</svg>
