<svg width="46" height="28" viewBox="0 0 46 28" fill="none" xmlns="http://www.w3.org/2000/svg">
<g clip-path="url(#clip0_68_1431)">
<path d="M14.1885 28.0008C22.0213 28.0008 28.3711 21.7347 28.3711 14.005C28.3711 6.27539 22.0213 0.00927734 14.1885 0.00927734C6.35564 0.00927734 0.00585938 6.27539 0.00585938 14.005C0.00585938 21.7347 6.35564 28.0008 14.1885 28.0008Z" fill="#EE0005"/>
<path d="M31.8096 28.0013C39.6424 28.0013 45.9922 21.7352 45.9922 14.0055C45.9922 6.27588 39.6424 0.00976562 31.8096 0.00976562C23.9767 0.00976562 17.627 6.27588 17.627 14.0055C17.627 21.7352 23.9767 28.0013 31.8096 28.0013Z" fill="#F9A000"/>
<path d="M17.627 14.005C17.627 18.449 19.7262 22.4087 22.9991 24.9724C26.2718 22.4086 28.3712 18.449 28.3712 14.005C28.3712 9.56107 26.2719 5.6013 22.9991 3.0376C19.7263 5.60151 17.627 9.56118 17.627 14.005Z" fill="#FF6300"/>
</g>
<defs>
<clipPath id="clip0_68_1431">
<rect width="46" height="28" fill="white"/>
</clipPath>
</defs>
</svg>
