<svg width="135" height="45" viewBox="0 0 135 45" fill="none" xmlns="http://www.w3.org/2000/svg">
<path d="M8.66869 44.9977C8.31988 44.9977 7.97949 44.9931 7.63341 44.9851C6.91647 44.9755 6.20121 44.9113 5.4935 44.7932C4.83359 44.6764 4.19431 44.4592 3.59676 44.1486C3.00468 43.8407 2.46466 43.4369 1.99739 42.9527C1.52334 42.4742 1.12868 41.9193 0.829041 41.3098C0.526098 40.6964 0.316443 40.039 0.20738 39.3603C0.089602 38.6311 0.0258789 37.8937 0.0167608 37.1545C0.0095024 36.9064 0 36.0804 0 36.0804V8.90464C0 8.90464 0.0101206 8.09126 0.0168181 7.8523C0.0255486 7.11431 0.0889011 6.37808 0.206327 5.64998C0.315591 4.96945 0.525408 4.31007 0.828514 3.69467C1.12705 3.08565 1.51952 2.53029 1.99071 2.0501C2.46137 1.56536 3.00311 1.15947 3.5962 0.847262C4.19238 0.537729 4.83045 0.322021 5.48902 0.207366C6.19906 0.0880379 6.9168 0.0235236 7.63622 0.014364L8.66926 0H126.325L127.371 0.0149404C128.083 0.0236449 128.795 0.0875837 129.498 0.206213C130.163 0.322307 130.808 0.539519 131.411 0.850708C132.599 1.47991 133.566 2.47536 134.176 3.69754C134.474 4.30869 134.681 4.96269 134.789 5.63734C134.907 6.37142 134.974 7.11344 134.988 7.85747C134.991 8.19063 134.991 8.54849 134.991 8.90464C135 9.34579 135 9.76569 135 10.189V34.8097C135 35.2371 135 35.6541 134.991 36.0746C134.991 36.4572 134.991 36.8076 134.986 37.1683C134.973 37.8991 134.908 38.6278 134.791 39.3488C134.684 40.0323 134.475 40.6949 134.173 41.3134C133.871 41.9162 133.478 42.4663 133.01 42.9435C132.542 43.4303 132.001 43.8365 131.408 44.1464C130.806 44.4593 130.163 44.6774 129.498 44.7932C128.79 44.912 128.075 44.9761 127.358 44.9851C127.023 44.9931 126.672 44.9977 126.331 44.9977L125.09 45L8.66869 44.9977Z" fill="black"/>
</svg>
