<svg width="92" height="26" viewBox="0 0 92 26" fill="none" xmlns="http://www.w3.org/2000/svg">
<g clip-path="url(#clip0_68_1436)">
<path d="M51.2211 2.74739L45.4141 15.3531H44.8237V7.33508e-08H36.5615V25.9968H43.5687C44.4702 25.9969 45.3529 25.7382 46.1122 25.2513C46.8715 24.7644 47.4757 24.0697 47.853 23.2494L53.6601 10.6437H54.2505V25.9968H62.5062V7.33508e-08H55.5055C54.6039 -0.000159037 53.7213 0.258539 52.9619 0.745457C52.2026 1.23237 51.5985 1.92711 51.2211 2.74739Z" fill="#20AA4D"/>
<path d="M20.2473 3.41646L16.8082 15.3757H16.2178L12.7788 3.41646C12.4949 2.43176 11.8993 1.56613 11.0818 0.949948C10.2643 0.333761 9.26906 0.000375921 8.24603 0L0 0V26H8.25571V10.634H8.84609L13.5498 26H19.4601L24.18 10.634H24.7703V26H33.0261V0H24.78C23.757 0.000375921 22.7618 0.333761 21.9443 0.949948C21.1267 1.56613 20.5312 2.43176 20.2473 3.41646Z" fill="#20AA4D"/>
<path d="M66.0527 11.8169V25.9999H74.2923V17.7254H83.1545C84.9828 17.7244 86.7658 17.1557 88.2581 16.0976C89.7504 15.0395 90.8787 13.544 91.4877 11.8169H66.0527Z" fill="#20AA4D"/>
<path d="M83.1537 0H64.8711C65.4221 2.98593 66.9992 5.68433 69.3288 7.62681C71.6583 9.5693 74.5932 10.6333 77.624 10.634H91.8191C91.9367 10.0499 91.9961 9.45544 91.9965 8.85952C91.9957 6.51009 91.0637 4.25714 89.4056 2.59584C87.7474 0.934543 85.4987 0.000856674 83.1537 0" fill="url(#paint0_linear_68_1436)"/>
</g>
<defs>
<linearGradient id="paint0_linear_68_1436" x1="64.8711" y1="5.31701" x2="91.9997" y2="5.31701" gradientUnits="userSpaceOnUse">
<stop offset="0.01" stop-color="#00A7E3"/>
<stop offset="0.34" stop-color="#009EDC"/>
<stop offset="0.87" stop-color="#0085C9"/>
<stop offset="1" stop-color="#007EC4"/>
</linearGradient>
<clipPath id="clip0_68_1436">
<rect width="92" height="26" fill="white"/>
</clipPath>
</defs>
</svg>
